<svg id="Layer_1" data-name="Layer 1" xmlns="http://www.w3.org/2000/svg" viewBox="0 0 500 500"><defs><style>.cls-1{fill:#fff;}.cls-2{fill:#ed1c24;}</style></defs><path class="cls-1" d="M356.62,89.83C338.83,67,316.09,59.07,289.71,65.52c-14,3.42-25.13,12.46-34.5,24.38-1.75,2.23-3.4,4.6-5.17,7-2.14-2.86-4.07-5.67-6.22-8.26-16.94-20.5-37.63-29.06-62.3-23.83-27.76,5.9-47.67,30.13-54,60-1,4.85-1.66,9.82-2.47,14.74v15.36c.15.88.38,1.74.47,2.64,1.49,15.65,6.62,29.82,14.12,43a195.25,195.25,0,0,0,32,41.18c22.54,22.55,45.41,44.68,68.22,66.88,6.58,6.42,14,6.22,20.73-.27,18.91-18.32,37.84-36.6,56.67-55,12.9-12.62,25.23-25.89,35.81-41.08,10.72-15.38,18.88-32.12,21.13-51.83C377.17,134.1,372.31,110,356.62,89.83Zm-13.05,109.1c-10.23,15.29-22.42,28.48-35.16,41-19.3,19-38.72,37.73-58.3,56.8-6.72-6.47-13.21-12.67-19.66-19-15.75-15.45-31.64-30.73-47.18-46.43-11.38-11.5-21.93-23.94-30.49-38.33-9.73-16.36-14.69-34.13-12.63-53.89,2.23-21.51,10.4-39.29,27.29-50.81,18-12.29,42.39-11.81,59.53,5a90.63,90.63,0,0,1,14.9,19.81c3,5.28,8,7.07,12.39,4.18a16.9,16.9,0,0,0,4.61-5.46c4.8-8.28,10.32-15.83,17.57-21.45,18-14,36.91-14.2,55.59-2.41,16.36,10.3,24.58,27.24,27.45,47.69C362.83,159.55,356.12,180.18,343.57,198.93Z"/><path class="cls-2" d="M359.05,213.5a11.85,11.85,0,0,0-1.33-.07c-15.2,0-41.37,0-56.57,0a6.15,6.15,0,0,0-5.51,3s0,.07-.06.1v-20c2.73,0,5.33,0,7.91,0a9,9,0,0,0,2.7-.37c4.46-1.58,5.84-7.88,2.45-11.58-3.11-3.4-6.35-6.63-9.59-9.89a2.83,2.83,0,0,1-.83-2.19c0-10.81,0-21.65,0-32.45a4.73,4.73,0,0,0-4.44-5H270.91a7.91,7.91,0,0,0-1.28.07,3.68,3.68,0,0,0-3.18,3.77c0,.67,0,1.38,0,2.29-.45-.41-.69-.61-.93-.85l-11-11.26a6.37,6.37,0,0,0-9.3,0q-26.34,27-52.65,53.85a11.88,11.88,0,0,0-3.36,5.19V191c.09.14.22.25.24.42.45,3.18,3.57,5,6.44,5.07,1.35,0,2.7,0,4,0h4.19v18.08c-16.78.07-40.3.1-57.08,0a7.06,7.06,0,0,0-5.45,1.87,5.13,5.13,0,0,0-1.27,3.59v.08a5.25,5.25,0,0,0,1.26,3.59,6.63,6.63,0,0,0,5.22,1.85c16.27-.14,39.22,0,55.5-.1,1.62,0,2.36.57,3,2.12,2.76,6.32,5.7,12.59,8.48,18.91,1,2.33,2.43,4,4.86,4s3.9-1.85,4.88-4.3c4.71-11.75,9.5-23.5,14.27-35.21,1-2.46,2-4.88,3.18-7.74.24.94.39,1.41.48,1.88q6.19,37.41,12.43,74.76c.54,3.26,2.22,5.08,4.71,5.15s4.28-1.58,5-4.85q3.42-16.67,6.78-33.32c1.76-8.82,3.56-17.64,5.42-26.89.57,1,.93,1.54,1.26,2.15,2.43,4.61,4.82,9.19,7.22,13.77,2.76,5.25,6.23,5.48,9.62.67,2.46-3.5,5-6.9,7.34-10.43a3.28,3.28,0,0,1,3.18-1.69c13.93,0,38.85,0,52.79,0a10.68,10.68,0,0,0,3.14-.37,5.18,5.18,0,0,0,3.35-5.43A5.72,5.72,0,0,0,359.05,213.5Zm-75.07.33c-2-3.8-4-7.64-6-11.44a4.46,4.46,0,0,0-5-2.59,4.68,4.68,0,0,0-3.8,3.8c-.33,1.21-.57,2.49-.81,3.74q-4.5,22.11-9,44.26c-1-3.91-1.65-7.88-2.31-11.85-3.06-18.28-6.05-36.55-9.11-54.83-.57-3.43-2-5.15-4.29-5.45-2.45-.34-4.16.94-5.48,4.21q-6.48,15.85-12.89,31.7l-7,17.07c-2.16-4.78-4.26-9.19-6.17-13.74a8,8,0,0,0-1-1.71V193.54c0-3.74-1.26-5.15-4.59-5.15h-8.39c0-.1-.09-.17-.12-.27l51.7-52.91c2.51,2.56,4.94,5,7.4,7.54,3.39,3.47,6.74,7,10.16,10.37,2.13,2.15,5.12,1.34,6-1.55a7.35,7.35,0,0,0,.18-1.82v-6.6h17.53v1.48c0,10.1,0,20.16,0,30.23a5.51,5.51,0,0,0,1.71,4.31c2.94,2.92,5.85,6,8.9,9.08a7.41,7.41,0,0,1-1,.14h-7.94c-2.94,0-4.28,1.51-4.28,4.78v29.21Z"/><path class="cls-1" d="M48.89,413V374.6h4.45v17.13h19.3V374.6h4.45V413H72.64V395.68H53.34V413Z"/><path class="cls-1" d="M86.43,413V374.6H110v3.95H90.88v13h15.74v3.9H90.88v13.62H110V413Z"/><path class="cls-1" d="M113.79,413,124.3,374.6h9.62L144.38,413h-4.45l-2.72-9.73H121L118.24,413Zm8.12-13.68h14.35l-5.73-21h-2.89Z"/><path class="cls-1" d="M150.33,413V374.6h4.45V409h16.79v4Z"/><path class="cls-1" d="M180,413V378.61H168.29v-4H196.1v4H184.48V413Z"/><path class="cls-1" d="M201.49,413V374.6h4.45v17.13h19.3V374.6h4.45V413h-4.45V395.68h-19.3V413Z"/><path class="cls-1" d="M246.82,413V378.61H235.08v-4h27.81v4H251.27V413Z"/><path class="cls-1" d="M268.28,413V374.6h14.29a16.74,16.74,0,0,1,6.82,1.23,8.47,8.47,0,0,1,4.14,3.8,16.15,16.15,0,0,1-.31,13.77,9.11,9.11,0,0,1-5.31,4.06L295.25,413H290.3l-6.78-14.63H272.73V413Zm4.45-18.52h9.9a8.44,8.44,0,0,0,4.53-1.06,5.79,5.79,0,0,0,2.42-2.92,11.54,11.54,0,0,0,.72-4.19c0-2.64-.63-4.6-1.89-5.9s-3.2-1.95-5.84-1.95h-9.84Z"/><path class="cls-1" d="M298.81,413l10.52-38.43H319L329.4,413H325l-2.72-9.73H306L303.26,413Zm8.12-13.68h14.35l-5.73-21h-2.89Z"/><path class="cls-1" d="M347.2,413.59a16.9,16.9,0,0,1-7.09-1.28,9.86,9.86,0,0,1-4.31-3.78,16.33,16.33,0,0,1-2.14-6.18,54.06,54.06,0,0,1-.59-8.45,56.1,56.1,0,0,1,.59-8.62,16.4,16.4,0,0,1,2.14-6.23,9.74,9.74,0,0,1,4.31-3.78A16.9,16.9,0,0,1,347.2,374c1.33,0,2.66.07,4,.19s2.55.3,3.7.5,2.13.4,2.95.59l-.17,3.73c-.81-.15-1.82-.3-3-.45s-2.39-.28-3.62-.39-2.33-.17-3.33-.17a12,12,0,0,0-5.15.95,6.63,6.63,0,0,0-3,2.92,14.41,14.41,0,0,0-1.44,4.95,55.48,55.48,0,0,0-.39,7.09,54.42,54.42,0,0,0,.39,7,14.24,14.24,0,0,0,1.41,4.89,6.51,6.51,0,0,0,3,2.87,12.28,12.28,0,0,0,5.22.94,48.92,48.92,0,0,0,5.15-.3c1.87-.21,3.45-.42,4.75-.64l.17,3.78c-.89.18-1.93.37-3.11.55s-2.43.34-3.73.45S348.42,413.59,347.2,413.59Z"/><path class="cls-1" d="M364.77,413V374.6h4.45v17.8l6.28-.22,9.68-17.58h5.12l-10.85,19.3L390.91,413h-5.29l-10.06-16.91-6.34.23V413Z"/><path class="cls-1" d="M396.47,413V374.6H420v3.95H400.92v13h15.74v3.9H400.92v13.62H420V413Z"/><path class="cls-1" d="M427.22,413V374.6h14.29a16.74,16.74,0,0,1,6.82,1.23,8.47,8.47,0,0,1,4.14,3.8,16.2,16.2,0,0,1-.3,13.77,9.17,9.17,0,0,1-5.32,4.06L454.19,413h-4.94l-6.79-14.63H431.67V413Zm4.45-18.52h9.9a8.44,8.44,0,0,0,4.53-1.06,5.79,5.79,0,0,0,2.42-2.92,11.54,11.54,0,0,0,.73-4.19c0-2.64-.64-4.6-1.9-5.9s-3.2-1.95-5.84-1.95h-9.84Z"/><path class="cls-1" d="M262.89,374.6c-.49,2.46-.49,3.8,0,4q1.62.69,10.51-15.55"/><path class="cls-1" d="M235.08,374.6a9.31,9.31,0,0,0,0,4c1.42,6.18,9.09,8.33,9.55,8.45"/><path class="cls-1" d="M48.89,374.6c2.24.46,4.16.65,4.45,0,.48-1.07-3.32-4.79-6-4.22s-4.57,5.37-4.08,12.08"/></svg>