<svg id="Layer_1" data-name="Layer 1" xmlns="http://www.w3.org/2000/svg" viewBox="0 0 500 91.88"><defs><style>.cls-1{fill:#fff;}.cls-2{fill:#ed1c24;}.cls-3{fill:#231f20;}</style></defs><rect class="cls-1" width="500" height="92"/><path class="cls-2" d="M75.35,62V23.57H79.8V40.7H99.1V23.57h4.44V62H99.1V44.64H79.8V62Z"/><path class="cls-2" d="M112.89,62V23.57h23.52v3.95H117.34v13h15.73v3.89H117.34V58.05h19.07v4Z"/><path class="cls-2" d="M140.25,62l10.51-38.43h9.62L170.83,62h-4.44l-2.73-9.74H147.42L144.7,62Zm8.12-13.69h14.35l-5.73-21H154.1Z"/><path class="cls-2" d="M176.79,62V23.57h4.44V58H198v4Z"/><path class="cls-2" d="M206.48,62V27.57H194.75v-4h27.8v4H210.93V62Z"/><path class="cls-2" d="M228,62V23.57h4.45V40.7h19.3V23.57h4.44V62H251.7V44.64H232.4V62Z"/><path class="cls-2" d="M273.27,62V27.57H261.54v-4h27.8v4H277.72V62Z"/><path class="cls-2" d="M294.74,62V23.57H309a16.83,16.83,0,0,1,6.81,1.22A8.51,8.51,0,0,1,320,28.6a14.05,14.05,0,0,1,1.39,6.65,13.83,13.83,0,0,1-1.7,7.11,9.07,9.07,0,0,1-5.31,4.06L321.71,62h-4.95L310,47.37H299.19V62Zm4.45-18.52h9.89a8.54,8.54,0,0,0,4.54-1.06A5.88,5.88,0,0,0,316,39.5a11.56,11.56,0,0,0,.72-4.2c0-2.63-.63-4.6-1.89-5.89s-3.21-1.95-5.84-1.95h-9.84Z"/><path class="cls-2" d="M325.27,62l10.51-38.43h9.62L355.86,62h-4.45l-2.73-9.74H332.44L329.72,62Zm8.12-13.69h14.35l-5.73-21h-2.89Z"/><path class="cls-2" d="M373.65,62.55a17,17,0,0,1-7.09-1.28,9.84,9.84,0,0,1-4.31-3.78,16.51,16.51,0,0,1-2.14-6.17,54.38,54.38,0,0,1-.58-8.46,56.29,56.29,0,0,1,.58-8.62A16.46,16.46,0,0,1,362.25,28a9.93,9.93,0,0,1,4.31-3.79A17,17,0,0,1,373.65,23c1.34,0,2.66.06,4,.19s2.55.3,3.7.5,2.13.4,2.94.58L384.11,28c-.82-.15-1.82-.3-3-.44s-2.39-.28-3.61-.39-2.34-.17-3.34-.17a12,12,0,0,0-5.14.94,6.64,6.64,0,0,0-3,2.92,14.4,14.4,0,0,0-1.45,5,55.59,55.59,0,0,0-.39,7.09,54.42,54.42,0,0,0,.39,7,14.23,14.23,0,0,0,1.42,4.9,6.47,6.47,0,0,0,3,2.86,12.35,12.35,0,0,0,5.23.95,46.22,46.22,0,0,0,5.14-.31c1.87-.2,3.46-.42,4.76-.64l.16,3.78c-.89.19-1.92.37-3.11.56s-2.43.33-3.73.44S374.88,62.55,373.65,62.55Z"/><path class="cls-2" d="M391.23,62V23.57h4.44V41.36l6.29-.22,9.67-17.57h5.12L405.91,42.86,417.36,62h-5.28L402,45.09l-6.34.22V62Z"/><path class="cls-2" d="M422.92,62V23.57h23.53v3.95H427.37v13h15.74v3.89H427.37V58.05h19.08v4Z"/><path class="cls-2" d="M453.68,62V23.57H468a16.83,16.83,0,0,1,6.81,1.22,8.51,8.51,0,0,1,4.15,3.81,14.05,14.05,0,0,1,1.39,6.65,13.83,13.83,0,0,1-1.7,7.11,9.07,9.07,0,0,1-5.31,4.06L480.65,62H475.7l-6.78-14.63H458.13V62Zm4.45-18.52H468a8.53,8.53,0,0,0,4.53-1.06A5.83,5.83,0,0,0,475,39.5a11.56,11.56,0,0,0,.72-4.2c0-2.63-.63-4.6-1.89-5.89s-3.21-1.95-5.84-1.95h-9.84Z"/><path class="cls-2" d="M64.72,24.71A13.28,13.28,0,0,0,51.08,20.3a13.12,13.12,0,0,0-7,4.42c-.36.41-.69.84-1,1.27-.44-.51-.83-1-1.27-1.49A13.08,13.08,0,0,0,29,20.17,14.15,14.15,0,0,0,18,31.06c-.21.89-.34,1.79-.5,2.68v2.79c0,.16.07.32.09.48a18,18,0,0,0,2.88,7.8A36.35,36.35,0,0,0,27,52.28c4.59,4.09,9.25,8.11,13.9,12.14a3,3,0,0,0,4.23,0q5.79-5,11.55-10A54.18,54.18,0,0,0,64,46.92a19.14,19.14,0,0,0,4.31-9.4A15.6,15.6,0,0,0,64.72,24.71ZM62.06,44.52A49.9,49.9,0,0,1,54.9,52C51,55.4,47,58.81,43,62.27l-4-3.44c-3.21-2.81-6.45-5.58-9.62-8.43a37.38,37.38,0,0,1-6.21-7,14.17,14.17,0,0,1-2.58-9.78c.46-3.91,2.12-7.13,5.57-9.22a10.32,10.32,0,0,1,12.13.91,16.64,16.64,0,0,1,3,3.6,1.83,1.83,0,0,0,2.53.76,3.42,3.42,0,0,0,.94-1,13.48,13.48,0,0,1,3.58-3.9,10,10,0,0,1,11.33-.43c3.34,1.87,5,4.94,5.6,8.65C66,37.37,64.62,41.11,62.06,44.52Z"/><path class="cls-3" d="M65.22,47.16H53.42a1.31,1.31,0,0,0-1.13.55,0,0,0,0,1,0,0V44.08c.56,0,1.09,0,1.61,0a2,2,0,0,0,.55-.07,1.25,1.25,0,0,0,.5-2.1c-.63-.62-1.29-1.21-1.95-1.8a.48.48,0,0,1-.17-.4V33.82a.9.9,0,0,0-.91-.9H47a.71.71,0,0,0-.65.69V34l-.19-.15-2.24-2.05a1.42,1.42,0,0,0-1.9,0L31.27,41.61a2.14,2.14,0,0,0-.68.94v.53a.16.16,0,0,1,.05.08,1.3,1.3,0,0,0,1.31.92h1.68v3.28c-3.42,0-8.21,0-11.64,0a1.48,1.48,0,0,0-1.11.34.88.88,0,0,0-.25.65h0a.9.9,0,0,0,.25.65,1.46,1.46,0,0,0,1.07.34c3.31,0,8,0,11.31,0a.57.57,0,0,1,.62.38c.56,1.15,1.16,2.29,1.73,3.44a1.05,1.05,0,0,0,1,.72,1.1,1.1,0,0,0,1-.78c1-2.13,1.94-4.27,2.91-6.39.2-.45.41-.89.65-1.41.05.17.08.26.1.34q1.26,6.79,2.53,13.57c.11.6.45.93,1,.94a1,1,0,0,0,1-.88c.47-2,.93-4,1.39-6l1.1-4.88.26.39L50,51.22c.56,1,1.27,1,2,.12.5-.64,1-1.25,1.5-1.89a.69.69,0,0,1,.65-.31H64.84a2.29,2.29,0,0,0,.64-.07.93.93,0,0,0,.68-1A1.08,1.08,0,0,0,65.22,47.16Zm-15.3.06-1.23-2.08a1,1,0,0,0-1-.47.92.92,0,0,0-.77.69c-.07.22-.12.46-.17.68-.61,2.68-1.21,5.36-1.82,8a20.12,20.12,0,0,1-.47-2.15c-.63-3.32-1.24-6.64-1.86-10-.12-.62-.41-.93-.88-1s-.85.18-1.11.77c-.88,1.92-1.76,3.83-2.63,5.75l-1.42,3.1c-.44-.87-.87-1.67-1.26-2.49a1.35,1.35,0,0,0-.19-.31V43.54c0-.68-.26-.94-.94-.94H32.44s0,0,0-.05L43,33c.51.46,1,.92,1.51,1.37.69.63,1.37,1.26,2.07,1.88a.72.72,0,0,0,1.21-.28,1.19,1.19,0,0,0,0-.33v-1.2h3.57v.27c0,1.83,0,3.66,0,5.49a1,1,0,0,0,.35.78c.6.53,1.19,1.08,1.82,1.65l-.21,0H51.71c-.6,0-.88.28-.88.87v5.3C50.51,48.24,50.21,47.73,49.92,47.22Z"/><path class="cls-2" d="M289.34,23.57c-.48,2.46-.48,3.79,0,4Q291,28.26,299.85,12"/><path class="cls-2" d="M261.54,23.57a9,9,0,0,0,0,4c1.41,6.19,9.09,8.33,9.55,8.45"/><path class="cls-2" d="M75.35,23.57c2.23.45,4.16.64,4.45,0,.48-1.07-3.32-4.8-6-4.23s-4.58,5.37-4.09,12.09"/></svg>