<svg xmlns="http://www.w3.org/2000/svg" viewBox="0 0 411 350.29"><defs><style>.cls-1{fill:#fff;}.cls-2{fill:#ed1c24;}</style></defs><g id="Layer_2" data-name="Layer 2"><g id="Layer_1-2" data-name="Layer 1"><path class="cls-1" d="M313.43,26.53C295.64,3.68,272.9-4.23,246.52,2.22c-14,3.42-25.13,12.46-34.5,24.38-1.75,2.23-3.4,4.6-5.18,7-2.13-2.86-4.06-5.67-6.21-8.26C183.69,4.83,163-3.73,138.33,1.5c-27.76,5.9-47.67,30.13-54,60-1,4.85-1.66,9.82-2.47,14.74V91.63c.15.88.38,1.74.46,2.64,1.5,15.65,6.63,29.82,14.13,43a195,195,0,0,0,32,41.18c22.54,22.55,45.4,44.68,68.21,66.88,6.59,6.43,14.05,6.22,20.74-.27C236.28,226.7,255.21,208.42,274,190c12.89-12.62,25.22-25.89,35.8-41.08,10.73-15.38,18.89-32.12,21.14-51.83C334,70.81,329.11,46.69,313.43,26.53Zm-13.06,109.1c-10.22,15.29-22.41,28.48-35.15,41-19.3,19-38.72,37.73-58.3,56.8-6.72-6.47-13.22-12.67-19.66-19C171.51,199,155.62,183.74,140.08,168c-11.38-11.5-21.93-23.94-30.49-38.33C99.86,113.35,94.9,95.58,97,75.82c2.23-21.51,10.4-39.29,27.29-50.81,18-12.29,42.39-11.81,59.53,5a90.63,90.63,0,0,1,14.9,19.81c3,5.28,8,7.07,12.39,4.18a16.55,16.55,0,0,0,4.6-5.46c4.81-8.27,10.33-15.83,17.58-21.45,18-14,36.9-14.2,55.59-2.41C305.19,35,313.41,52,316.29,72.42,319.64,96.25,312.93,116.88,300.37,135.63Z"/><path class="cls-2" d="M315.85,150.2a11.73,11.73,0,0,0-1.33-.07c-15.19,0-41.36,0-56.56,0a6.14,6.14,0,0,0-5.51,3s0,.07-.06.1v-20c2.72,0,5.33,0,7.91,0a9,9,0,0,0,2.7-.37c4.46-1.58,5.84-7.88,2.45-11.58-3.11-3.4-6.35-6.63-9.59-9.89a2.81,2.81,0,0,1-.84-2.19c0-10.81,0-21.64,0-32.45a4.73,4.73,0,0,0-4.43-5H227.72a8,8,0,0,0-1.29.07,3.68,3.68,0,0,0-3.17,3.77c0,.67,0,1.38,0,2.29-.45-.41-.69-.61-.93-.84l-11-11.27a6.37,6.37,0,0,0-9.3,0q-26.34,27-52.65,53.85a11.88,11.88,0,0,0-3.36,5.19v2.92c.09.14.22.25.24.42.45,3.18,3.57,5,6.43,5.07,1.36,0,2.71,0,4.06,0h4.19v18.08c-16.78.07-40.3.1-57.09,0a7,7,0,0,0-5.44,1.86,5.15,5.15,0,0,0-1.27,3.59v.08a5.2,5.2,0,0,0,1.26,3.59,6.62,6.62,0,0,0,5.21,1.85c16.28-.14,39.23,0,55.51-.1,1.61,0,2.36.57,3,2.12,2.76,6.33,5.7,12.59,8.48,18.91,1,2.33,2.43,4,4.86,4s3.89-1.86,4.88-4.31c4.71-11.75,9.5-23.5,14.27-35.21,1-2.46,2-4.88,3.17-7.74.24.94.39,1.41.48,1.88q6.21,37.41,12.44,74.76c.54,3.26,2.22,5.08,4.71,5.15s4.28-1.58,5-4.85q3.42-16.67,6.77-33.32c1.77-8.82,3.57-17.64,5.43-26.89.57,1,.93,1.55,1.26,2.15l7.22,13.77c2.76,5.25,6.23,5.48,9.62.67,2.46-3.5,5-6.9,7.34-10.43a3.28,3.28,0,0,1,3.18-1.69c13.93,0,38.85,0,52.78,0a10.71,10.71,0,0,0,3.15-.37,5.18,5.18,0,0,0,3.35-5.43A5.72,5.72,0,0,0,315.85,150.2Zm-75.06.33c-2-3.8-4-7.64-6-11.44a4.46,4.46,0,0,0-5-2.59,4.7,4.7,0,0,0-3.81,3.8c-.32,1.21-.56,2.49-.8,3.74q-4.5,22.11-9,44.26c-1-3.9-1.65-7.88-2.31-11.85-3.06-18.27-6.06-36.55-9.11-54.83-.57-3.43-2-5.15-4.29-5.45-2.46-.34-4.16.94-5.48,4.21q-6.48,15.85-12.89,31.7l-6.95,17.07c-2.16-4.78-4.26-9.19-6.18-13.73a7.39,7.39,0,0,0-.95-1.72V130.24c0-3.74-1.26-5.15-4.59-5.15h-8.39c0-.1-.09-.17-.12-.27l51.7-52.91c2.51,2.56,4.94,5,7.4,7.54,3.38,3.47,6.74,7,10.16,10.37,2.12,2.15,5.12,1.34,6-1.55a7.31,7.31,0,0,0,.18-1.82v-6.6h17.53v1.48c0,10.1,0,20.16,0,30.23a5.51,5.51,0,0,0,1.71,4.31c2.94,2.93,5.84,5.95,8.9,9.08a7.41,7.41,0,0,1-1,.14h-7.94c-2.94,0-4.29,1.51-4.29,4.78v29.21Z"/><path class="cls-1" d="M5.7,349.73V311.3h4.45v17.13h19.3V311.3H33.9v38.43H29.45V332.38H10.15v17.35Z"/><path class="cls-1" d="M43.24,349.73V311.3H66.76v3.95H47.69v13H63.43v3.9H47.69v13.62H66.76v4Z"/><path class="cls-1" d="M70.6,349.73,81.11,311.3h9.62l10.46,38.43H96.74L94,340H77.78l-2.73,9.73Zm8.12-13.68H93.07l-5.73-21H84.45Z"/><path class="cls-1" d="M107.14,349.73V311.3h4.45v34.43h16.79v4Z"/><path class="cls-1" d="M136.84,349.73V315.31H125.1v-4h27.81v4H141.28v34.42Z"/><path class="cls-1" d="M158.3,349.73V311.3h4.45v17.13h19.3V311.3h4.45v38.43h-4.45V332.38h-19.3v17.35Z"/><path class="cls-1" d="M203.62,349.73V315.31H191.89v-4H219.7v4H208.07v34.42Z"/><path class="cls-1" d="M225.09,349.73V311.3h14.29a16.74,16.74,0,0,1,6.82,1.23,8.44,8.44,0,0,1,4.14,3.81,14,14,0,0,1,1.39,6.64,13.87,13.87,0,0,1-1.7,7.12,9.11,9.11,0,0,1-5.31,4.06l7.34,15.57h-4.95l-6.78-14.63H229.54v14.63Zm4.45-18.52h9.9a8.44,8.44,0,0,0,4.53-1.06,5.81,5.81,0,0,0,2.42-2.91,11.64,11.64,0,0,0,.72-4.2c0-2.64-.63-4.6-1.89-5.9s-3.21-1.95-5.84-1.95h-9.84Z"/><path class="cls-1" d="M255.62,349.73l10.51-38.43h9.62l10.46,38.43h-4.45L279,340H262.8l-2.73,9.73Zm8.12-13.68h14.35l-5.73-21h-2.89Z"/><path class="cls-1" d="M304,350.29a17,17,0,0,1-7.1-1.28,9.91,9.91,0,0,1-4.31-3.78,16.68,16.68,0,0,1-2.14-6.18,54.15,54.15,0,0,1-.58-8.45,56.2,56.2,0,0,1,.58-8.62,16.75,16.75,0,0,1,2.14-6.23,9.84,9.84,0,0,1,4.31-3.78,17,17,0,0,1,7.1-1.28c1.33,0,2.65.07,4,.19s2.55.3,3.7.51,2.13.39,2.95.58l-.17,3.73q-1.23-.22-3-.45c-1.19-.15-2.39-.28-3.62-.39s-2.33-.17-3.33-.17a12,12,0,0,0-5.15.95,6.59,6.59,0,0,0-3,2.92,14.63,14.63,0,0,0-1.45,4.95,55.67,55.67,0,0,0-.38,7.09,54.59,54.59,0,0,0,.38,7,14.46,14.46,0,0,0,1.42,4.89,6.54,6.54,0,0,0,3,2.87,12.36,12.36,0,0,0,5.23.94,48.92,48.92,0,0,0,5.15-.3c1.87-.21,3.45-.42,4.75-.64l.17,3.78c-.89.18-1.93.37-3.12.55s-2.43.34-3.72.45S305.23,350.29,304,350.29Z"/><path class="cls-1" d="M321.58,349.73V311.3H326v17.8l6.28-.22L342,311.3h5.12l-10.85,19.3,11.46,19.13h-5.29l-10.06-16.91-6.34.23v16.68Z"/><path class="cls-1" d="M353.28,349.73V311.3H376.8v3.95H357.73v13h15.73v3.9H357.73v13.62H376.8v4Z"/><path class="cls-1" d="M384,349.73V311.3h14.29a16.74,16.74,0,0,1,6.82,1.23,8.44,8.44,0,0,1,4.14,3.81,14,14,0,0,1,1.39,6.64,13.87,13.87,0,0,1-1.7,7.12,9.11,9.11,0,0,1-5.31,4.06L411,349.73h-4.95l-6.78-14.63H388.48v14.63Zm4.45-18.52h9.9a8.44,8.44,0,0,0,4.53-1.06,5.81,5.81,0,0,0,2.42-2.91,11.64,11.64,0,0,0,.72-4.2c0-2.64-.63-4.6-1.89-5.9s-3.21-1.95-5.84-1.95h-9.84Z"/><path class="cls-1" d="M219.7,311.3c-.49,2.46-.49,3.8,0,4q1.62.69,10.5-15.55"/><path class="cls-1" d="M191.89,311.3a9.31,9.31,0,0,0,0,4c1.41,6.18,9.09,8.33,9.55,8.45"/><path class="cls-1" d="M5.7,311.3c2.23.46,4.16.65,4.45,0,.48-1.07-3.32-4.79-6-4.22S-.42,312.45.08,319.16"/></g></g></svg>