<svg xmlns="http://www.w3.org/2000/svg" xmlns:xlink="http://www.w3.org/1999/xlink" width="20" height="20" viewBox="0 0 20 20"><defs><style>.a,.c{fill:#ff575a;}.a{stroke:#707070;}.b{clip-path:url(#a);}</style><clipPath id="a"><rect class="a" width="20" height="20" transform="translate(221 382)"/></clipPath></defs><g class="b" transform="translate(-221 -382)"><g transform="translate(221 382)"><path class="c" d="M15.274,9.822h1.4a.573.573,0,0,0,.572-.572v-1.4a.573.573,0,0,0-.572-.572h-1.4a.573.573,0,0,0-.572.572v1.4A.573.573,0,0,0,15.274,9.822Zm.014-1.953h1.367V9.236H15.288Zm-.014,5.664h1.4a.573.573,0,0,0,.572-.572v-1.4a.573.573,0,0,0-.572-.572h-1.4a.573.573,0,0,0-.572.572v1.4A.573.573,0,0,0,15.274,13.533Zm.014-1.953h1.367v1.367H15.288Zm-4-1.758h1.4a.573.573,0,0,0,.572-.572v-1.4a.573.573,0,0,0-.572-.572h-1.4a.573.573,0,0,0-.572.572v1.4A.573.573,0,0,0,11.293,9.822Zm.014-1.953h1.367V9.236H11.307ZM4.726,14.531h-1.4a.573.573,0,0,0-.572.572v1.4a.573.573,0,0,0,.572.572h1.4A.573.573,0,0,0,5.3,16.5V15.1a.573.573,0,0,0-.572-.572Zm-.014,1.953H3.345V15.117H4.712Zm.014-9.2h-1.4a.573.573,0,0,0-.572.572v1.4a.573.573,0,0,0,.572.572h1.4A.573.573,0,0,0,5.3,9.25v-1.4a.573.573,0,0,0-.572-.572ZM4.712,9.236H3.345V7.869H4.712Zm6.581,4.21h1.4a.573.573,0,0,0,.572-.572v-1.4a.573.573,0,0,0-.572-.572h-1.4a.573.573,0,0,0-.572.572v1.4A.573.573,0,0,0,11.293,13.446Zm.014-1.953h1.367V12.86H11.307ZM17.532,1.339H16.28V.891A.892.892,0,0,0,15.389,0h-.135a.892.892,0,0,0-.891.891v.448H5.637V.891A.892.892,0,0,0,4.746,0H4.611A.892.892,0,0,0,3.72.891v.448H2.468A1.468,1.468,0,0,0,1,2.806v15.73A1.466,1.466,0,0,0,2.466,20H17.534A1.466,1.466,0,0,0,19,18.535V2.806a1.469,1.469,0,0,0-1.467-1.467ZM14.949.891a.305.305,0,0,1,.3-.3h.135a.305.305,0,0,1,.3.3v.448h-.744ZM4.306.891a.305.305,0,0,1,.3-.3h.135a.305.305,0,0,1,.3.3v.448H4.306V.891ZM18.413,18.535a.88.88,0,0,1-.879.879H2.466a.88.88,0,0,1-.879-.879v0a1.459,1.459,0,0,0,.881.295H14.346a1.457,1.457,0,0,0,1.037-.43l3.03-3.03Zm-3.329-.666a1.253,1.253,0,0,0,.035-.3V15.618a.67.67,0,0,1,.669-.669h1.956a1.253,1.253,0,0,0,.3-.035ZM18.413,5.526H5.93a.293.293,0,0,0,0,.586H18.413v7.583a.67.67,0,0,1-.669.669H15.789a1.256,1.256,0,0,0-1.255,1.255v1.956a.67.67,0,0,1-.669.669H2.468a.882.882,0,0,1-.881-.881V6.111H4.758a.293.293,0,0,0,0-.586H1.587V2.806a.882.882,0,0,1,.881-.881H3.72v.861a.892.892,0,0,0,.891.891.293.293,0,0,0,0-.586.305.305,0,0,1-.3-.3V1.925H14.363v.861a.892.892,0,0,0,.891.891.293.293,0,1,0,0-.586.305.305,0,0,1-.3-.3V1.925h2.583a.882.882,0,0,1,.881.881ZM4.726,10.907h-1.4a.573.573,0,0,0-.572.572v1.4a.573.573,0,0,0,.572.572h1.4a.573.573,0,0,0,.572-.572v-1.4a.573.573,0,0,0-.572-.572ZM4.712,12.86H3.345V11.493H4.712Zm2.6-3.038h1.4a.573.573,0,0,0,.572-.572v-1.4a.573.573,0,0,0-.572-.572h-1.4a.573.573,0,0,0-.572.572v1.4A.573.573,0,0,0,7.312,9.822Zm.014-1.953H8.693V9.236H7.326Zm3.981,8.615a.293.293,0,0,0-.586.014.573.573,0,0,0,.572.572h1.4a.573.573,0,0,0,.572-.572V15.1a.573.573,0,0,0-.572-.572h-1.4a.573.573,0,0,0-.572.572v.4a.293.293,0,0,0,.586,0v-.388h1.367v1.367ZM7.312,13.446h1.4a.573.573,0,0,0,.572-.572v-1.4a.573.573,0,0,0-.572-.572h-1.4a.573.573,0,0,0-.572.572v1.4A.573.573,0,0,0,7.312,13.446Zm.014-1.953H8.693V12.86H7.326ZM7.312,17.07h1.4a.573.573,0,0,0,.572-.572V15.1a.573.573,0,0,0-.572-.572h-1.4a.573.573,0,0,0-.572.572v1.4A.573.573,0,0,0,7.312,17.07Zm.014-1.953H8.693v1.367H7.326Z"/></g></g></svg>