<svg xmlns="http://www.w3.org/2000/svg" xmlns:xlink="http://www.w3.org/1999/xlink" width="21" height="21" viewBox="0 0 21 21"><defs><style>.a,.c{fill:#ff575a;}.a{stroke:#707070;}.b{clip-path:url(#a);}</style><clipPath id="a"><rect class="a" width="21" height="21" transform="translate(315 375.5)"/></clipPath></defs><g class="b" transform="translate(-315 -375.5)"><g transform="translate(315 375.5)"><path class="c" d="M4.594,1.23a1.23,1.23,0,0,0-2.461,0V3.9a.615.615,0,0,0,.615.615H4.594Z"/><path class="c" d="M11.977,11.115h2.871v6.152H11.977Z"/><path class="c" d="M18.744,0H5.493a2.445,2.445,0,0,1,.331,1.23V11.936h4.922v-.82h-.205a.615.615,0,0,1,0-1.23h5.742a.615.615,0,0,1,0,1.23h-.205v6.152h.205a.615.615,0,0,1,0,1.23H10.541a.615.615,0,0,1,0-1.23h.205v-.82H5.824v3.938A.615.615,0,0,0,6.439,21H20.385A.615.615,0,0,0,21,20.385V2.256A2.258,2.258,0,0,0,18.744,0Zm-.82,7.424H8.9a.615.615,0,0,1,0-1.23h9.023a.615.615,0,0,1,0,1.23Zm0-2.461H8.9a.615.615,0,0,1,0-1.23h9.023a.615.615,0,0,1,0,1.23Z"/><path class="c" d="M0,14.191a1.025,1.025,0,0,0,1.025,1.025H2.461V13.166H1.025A1.025,1.025,0,0,0,0,14.191Z"/><path class="c" d="M3.691,13.166h7.055v2.051H3.691Z"/></g></g></svg>