<svg xmlns="http://www.w3.org/2000/svg" xmlns:xlink="http://www.w3.org/1999/xlink" width="25" height="25" viewBox="0 0 25 25"><defs><style>.a,.c{fill:#ff575a;}.a{stroke:#707070;}.b{clip-path:url(#a);}</style><clipPath id="a"><rect class="a" width="25" height="25"/></clipPath></defs><g class="b"><g transform="translate(0 0)"><path class="c" d="M19.792,12.524a1.041,1.041,0,0,0-1.042,1.042V21.9a1.043,1.043,0,0,1-1.042,1.042H3.125A1.043,1.043,0,0,1,2.083,21.9V7.315A1.043,1.043,0,0,1,3.125,6.274h8.333a1.042,1.042,0,0,0,0-2.083H3.125A3.129,3.129,0,0,0,0,7.315V21.9a3.129,3.129,0,0,0,3.125,3.125H17.708A3.129,3.129,0,0,0,20.833,21.9V13.565a1.041,1.041,0,0,0-1.042-1.042Zm0,0" transform="translate(0 -0.024)"/><path class="c" d="M9.767,11.575a.527.527,0,0,0-.143.266l-.736,3.683a.52.52,0,0,0,.512.623.5.5,0,0,0,.1-.01l3.682-.736a.519.519,0,0,0,.267-.143l8.242-8.242L18.009,3.333Zm0,0" transform="translate(0 -0.024)"/><path class="c" d="M24.237.786a2.606,2.606,0,0,0-3.682,0L19.114,2.228,22.8,5.91l1.442-1.442a2.6,2.6,0,0,0,0-3.682Zm0,0" transform="translate(0 -0.024)"/></g></g></svg>