<svg xmlns="http://www.w3.org/2000/svg" xmlns:xlink="http://www.w3.org/1999/xlink" width="21" height="21" viewBox="0 0 21 21"><defs><style>.a,.c{fill:#ff575a;}.a{stroke:#707070;}.b{clip-path:url(#a);}</style><clipPath id="a"><rect class="a" width="21" height="21" transform="translate(325 239)"/></clipPath></defs><g class="b" transform="translate(-325 -239)"><path class="c" d="M19.334,1.828A5.647,5.647,0,0,0,15.134,0a5.283,5.283,0,0,0-3.3,1.139A6.751,6.751,0,0,0,10.5,2.532,6.747,6.747,0,0,0,9.166,1.139,5.282,5.282,0,0,0,5.866,0a5.647,5.647,0,0,0-4.2,1.828A6.564,6.564,0,0,0,0,6.311a7.816,7.816,0,0,0,2.083,5.116A44.414,44.414,0,0,0,7.3,16.321c.722.616,1.541,1.314,2.392,2.057a1.233,1.233,0,0,0,1.623,0c.85-.744,1.67-1.442,2.392-2.058a44.389,44.389,0,0,0,5.213-4.893A7.815,7.815,0,0,0,21,6.311a6.563,6.563,0,0,0-1.666-4.483Zm0,0" transform="translate(325 240.158)"/></g></svg>