<svg xmlns="http://www.w3.org/2000/svg" xmlns:xlink="http://www.w3.org/1999/xlink" width="21" height="21" viewBox="0 0 21 21"><defs><style>.a,.c{fill:#ff575a;}.a{stroke:#707070;}.b{clip-path:url(#a);}</style><clipPath id="a"><rect class="a" width="21" height="21" transform="translate(324 324)"/></clipPath></defs><g class="b" transform="translate(-324 -324)"><g transform="translate(324 324)"><path class="c" d="M5.689,5.619H5.426L4.934,8.08H6.181Z"/><path class="c" d="M15.642,10.541a6.429,6.429,0,0,0,1.01,1.783A6.494,6.494,0,0,0,17.7,10.541Z"/><path class="c" d="M19.154,3.732H11.514l1.593,12.784a1.91,1.91,0,0,1-.456,1.4L9.953,21h9.2A1.848,1.848,0,0,0,21,19.154V5.619A1.883,1.883,0,0,0,19.154,3.732Zm0,6.809H18.99a7.807,7.807,0,0,1-1.482,2.695c.452.413.935.752,1.416,1.132a.615.615,0,0,1-.769.96c-.522-.412-1.012-.757-1.5-1.207-.49.45-.939.795-1.461,1.207a.615.615,0,1,1-.769-.96c.48-.38.923-.719,1.375-1.132a7.765,7.765,0,0,1-1.441-2.695h-.164a.615.615,0,0,1,0-1.23h1.846V8.7a.615.615,0,0,1,1.23,0v.615h1.887a.615.615,0,0,1,0,1.23Z"/><path class="c" d="M10.015,1.617A1.848,1.848,0,0,0,8.183,0H1.846A1.848,1.848,0,0,0,0,1.846V15.463a1.848,1.848,0,0,0,1.846,1.846h9.7c.179-.205.33-.334.336-.6C11.886,16.64,10.023,1.683,10.015,1.617ZM7.545,11.759a.615.615,0,0,1-.724-.482L6.427,9.311H4.688l-.393,1.966a.615.615,0,1,1-1.206-.242l1.23-6.152a.616.616,0,0,1,.6-.494H6.193a.616.616,0,0,1,.6.494l1.23,6.152A.615.615,0,0,1,7.545,11.759Z"/><path class="c" d="M7.188,18.539l.106.844a1.861,1.861,0,0,0,1.064,1.43l2.066-2.274H7.188Z"/></g></g></svg>