<svg xmlns="http://www.w3.org/2000/svg" xmlns:xlink="http://www.w3.org/1999/xlink" width="15" height="15" viewBox="0 0 15 15"><defs><style>.a,.c{fill:#b0b0b0;}.a{stroke:#707070;}.b{clip-path:url(#a);}</style><clipPath id="a"><rect class="a" width="15" height="15" transform="translate(347 91)"/></clipPath></defs><g class="b" transform="translate(-347 -91)"><g transform="translate(348.179 91)"><path class="c" d="M8.968,3.437a3.1,3.1,0,1,0,3.1,3.1A3.1,3.1,0,0,0,8.968,3.437Zm2.02,2.894-.552.827-.006.877a.439.439,0,0,1-.559.42l-.957-.27s-.7.248-.836.266a.655.655,0,0,1-.385-.059.439.439,0,0,1-.187-.342l-.039-.994-.511-.713a.439.439,0,0,1,.205-.668l.933-.345.52-.706a.439.439,0,0,1,.7-.011l.616.781.833.277a.44.44,0,0,1,.227.661Z" transform="translate(-2.647 -0.859)"/><path class="c" d="M9.929,10.252a2.378,2.378,0,0,1,.747-.109,2.068,2.068,0,0,0,1.44-.45,1.841,1.841,0,0,0,.429-1.382,2.08,2.08,0,0,1,.087-.686,2.377,2.377,0,0,1,.451-.606,2.068,2.068,0,0,0,.7-1.337A1.841,1.841,0,0,0,13.109,4.4a2.081,2.081,0,0,1-.424-.546,2.378,2.378,0,0,1-.109-.747,2.069,2.069,0,0,0-.45-1.44,1.841,1.841,0,0,0-1.382-.429,2.08,2.08,0,0,1-.686-.087A2.378,2.378,0,0,1,9.452.7,2.068,2.068,0,0,0,8.115,0H8.1A1.859,1.859,0,0,0,6.834.674a2.081,2.081,0,0,1-.546.424,2.378,2.378,0,0,1-.747.109,2.068,2.068,0,0,0-1.44.45A1.841,1.841,0,0,0,3.672,3.04a2.081,2.081,0,0,1-.087.686,2.377,2.377,0,0,1-.451.606,2.068,2.068,0,0,0-.7,1.337,1.841,1.841,0,0,0,.674,1.281,2.081,2.081,0,0,1,.424.546,2.379,2.379,0,0,1,.109.747,2.068,2.068,0,0,0,.45,1.44,1.841,1.841,0,0,0,1.382.429,2.08,2.08,0,0,1,.686.087,2.378,2.378,0,0,1,.606.451,2.068,2.068,0,0,0,1.337.7h.02a1.859,1.859,0,0,0,1.261-.674A2.082,2.082,0,0,1,9.929,10.252Zm-1.821-.6a3.976,3.976,0,1,1,3.976-3.976A3.981,3.981,0,0,1,8.108,9.651Z" transform="translate(-1.788)"/><path class="c" d="M10.032,6.765l-.341-.432-.257.348a.44.44,0,0,1-.2.152l-.516.19.252.352a.439.439,0,0,1,.082.239l.022.549a4.113,4.113,0,0,1,.545-.152,5.866,5.866,0,0,1,.648.166l0-.433a.44.44,0,0,1,.074-.241l.305-.457-.411-.136A.439.439,0,0,1,10.032,6.765Z" transform="translate(-3.358 -1.583)"/><path class="c" d="M16.542,15.919l-1.429-2.475a2.141,2.141,0,0,1-.214.24,2.889,2.889,0,0,1-2.009.7,2.966,2.966,0,0,0-.446.041,3.048,3.048,0,0,0-.285.251,3.518,3.518,0,0,1-1.037.747l1.571,2.721a.439.439,0,0,0,.336.217l.044,0a.439.439,0,0,0,.329-.148l1.15-1.3,1.7-.347a.439.439,0,0,0,.292-.65Z" transform="translate(-3.96 -3.361)"/><path class="c" d="M5.614,14.374a3.049,3.049,0,0,0-.379-.024,2.652,2.652,0,0,1-1.99-.7,2.221,2.221,0,0,1-.183-.215L1.631,15.918a.439.439,0,0,0,.292.65l1.7.347,1.15,1.3a.439.439,0,0,0,.329.148l.044,0a.439.439,0,0,0,.336-.218l1.572-2.723a3.791,3.791,0,0,1-1.093-.757A2.966,2.966,0,0,0,5.614,14.374Z" transform="translate(-1.572 -3.36)"/></g></g></svg>