<svg xmlns="http://www.w3.org/2000/svg" xmlns:xlink="http://www.w3.org/1999/xlink" width="15" height="15" viewBox="0 0 15 15"><defs><style>.a,.c{fill:#777;}.a{stroke:#707070;}.b{clip-path:url(#a);}</style><clipPath id="a"><rect class="a" width="15" height="15" transform="translate(260 318)"/></clipPath></defs><g class="b" transform="translate(-260 -318)"><g transform="translate(260.235 318)"><g transform="translate(0 0)"><path class="c" d="M14.332,8.786h-.224V6.764a.949.949,0,0,0-.4-.776V5.713a.725.725,0,0,0-.724-.724h-.168l.641-.941a.693.693,0,0,0-.182-.962L8.92.12A.692.692,0,0,0,7.959.3L4.2,5.814H3.157L3.41,3.261A.076.076,0,0,1,3.457,3.2a1.625,1.625,0,0,0,.793-.644.075.075,0,0,1,.071-.033l1.639.162A.214.214,0,1,0,6,2.257L4.363,2.1a.5.5,0,0,0-.474.229,1.2,1.2,0,0,1-.583.474.5.5,0,0,0-.322.421L2.728,5.814H2.455l.4-4.037a.265.265,0,0,1,.29-.238l3.313.327A.214.214,0,1,0,6.5,1.441L3.186,1.114a.693.693,0,0,0-.757.621L2.107,4.989H1.56a.725.725,0,0,0-.724.724V5.9a.951.951,0,0,0-.554.863V14.05a.951.951,0,0,0,.95.95H13.157a.951.951,0,0,0,.95-.95V12.028h.224a.481.481,0,0,0,.48-.48V9.266A.481.481,0,0,0,14.332,8.786ZM12.98,5.416h0a.3.3,0,0,1,.3.3v.109a.953.953,0,0,0-.12-.008H12.25l.271-.4ZM8.312.543a.263.263,0,0,1,.17-.111.269.269,0,0,1,.05,0A.263.263,0,0,1,8.68.474l4.351,2.965a.265.265,0,0,1,.07.368L11.733,5.814H11.4l.671-.984A.5.5,0,0,0,12.1,4.3a1.2,1.2,0,0,1-.143-.737.5.5,0,0,0-.216-.48L9.484,1.546a.5.5,0,0,0-.526-.026,1.2,1.2,0,0,1-.739.136.506.506,0,0,0-.485.216L5.048,5.814H4.72Zm.094,3.63A1.764,1.764,0,0,0,6.649,5.814H5.565l2.522-3.7h0a.076.076,0,0,1,.062-.034h.01a1.625,1.625,0,0,0,1-.185.075.075,0,0,1,.078,0L11.5,3.436a.076.076,0,0,1,.033.071,1.625,1.625,0,0,0,.195,1,.076.076,0,0,1,0,.079l-.835,1.225h-.725A1.764,1.764,0,0,0,8.406,4.173ZM9.734,5.814H7.077a1.334,1.334,0,0,1,2.657,0Zm-8.471-.1a.3.3,0,0,1,.3-.3h.505l-.039.4H1.263ZM.709,6.764a.523.523,0,0,1,.523-.523H13.157a.523.523,0,0,1,.523.523v.593H.709ZM13.68,14.05a.523.523,0,0,1-.523.523H1.232a.523.523,0,0,1-.523-.523v-.593H1.862a.214.214,0,0,0,0-.427H.709V7.785H13.68v1H11.648a1.623,1.623,0,0,0-1.458.914l0,.005-.006.014a1.612,1.612,0,0,0-.081.207h0a1.622,1.622,0,0,0,1.548,2.1H13.68v1H3.23a.214.214,0,0,0,0,.427H13.68Zm.7-2.5a.053.053,0,0,1-.053.053H11.648a1.2,1.2,0,0,1-1.049-.625q-.014-.025-.026-.051-.025-.052-.045-.107a1.195,1.195,0,0,1,0-.82q.02-.055.045-.107.013-.026.026-.051a1.2,1.2,0,0,1,1.049-.625h2.684a.053.053,0,0,1,.053.053v2.281Z" transform="translate(-0.282 0)"/></g><g transform="translate(10.549 9.54)"><path class="c" d="M13.808,11.448a.867.867,0,1,0,.867.867A.868.868,0,0,0,13.808,11.448Zm0,1.307a.44.44,0,1,1,.44-.44A.44.44,0,0,1,13.808,12.755Z" transform="translate(-12.94 -11.448)"/></g></g></g></svg>