<svg xmlns="http://www.w3.org/2000/svg" xmlns:xlink="http://www.w3.org/1999/xlink" width="20" height="20" viewBox="0 0 20 20"><defs><style>.a,.c{fill:#ff575a;}.a{stroke:#707070;}.b{clip-path:url(#a);}</style><clipPath id="a"><rect class="a" width="20" height="20" transform="translate(331 382)"/></clipPath></defs><g class="b" transform="translate(-331 -382)"><g transform="translate(330.234 381.233)"><path class="c" d="M13.252,6.228a2.486,2.486,0,1,0-2.486,2.486,2.486,2.486,0,0,0,2.486-2.486Zm-4.383,0a1.9,1.9,0,1,1,1.9,1.9,1.9,1.9,0,0,1-1.9-1.9Z"/><path class="c" d="M20.747,20.367l-2.4-6.292a.3.3,0,0,0-.275-.189H13.53l.083-.135c1.748-2.893,2.627-5.425,2.615-7.522a5.461,5.461,0,1,0-10.923,0c-.013,2.1.867,4.63,2.615,7.523L8,13.886H3.461a.3.3,0,0,0-.275.189l-2.4,6.292a.294.294,0,0,0,.275.4H20.472a.294.294,0,0,0,.275-.4ZM5.894,6.228a4.872,4.872,0,0,1,9.745,0c.025,4.183-3.884,9.34-4.872,10.577-.988-1.236-4.9-6.393-4.872-10.578Zm4.648,11.234a.294.294,0,0,0,.448,0,31.242,31.242,0,0,0,2.17-2.988h4.708l.377.988-9.2,3.272L5.766,14.474H8.372a31.243,31.243,0,0,0,2.17,2.988Zm-1.507,1.9h0l5.489-1.951,2.129,2.766H6.746ZM3.664,14.474H5.023l3.439,4.468L4.989,20.177h-3.5Zm13.734,5.7L15.109,17.2l3.348-1.191,1.589,4.165Z"/></g></g></svg>