<svg xmlns="http://www.w3.org/2000/svg" xmlns:xlink="http://www.w3.org/1999/xlink" width="21" height="21" viewBox="0 0 21 21"><defs><style>.a{fill:#ff575a;}.b{clip-path:url(#a);}</style><clipPath id="a"><rect class="a" width="21" height="21" transform="translate(325 177)"/></clipPath></defs><g class="b" transform="translate(-325 -177)"><g transform="translate(326.74 177)"><path class="a" d="M8.628,10.116A4.894,4.894,0,0,0,12.2,8.634a4.894,4.894,0,0,0,1.482-3.576A4.895,4.895,0,0,0,12.2,1.482,4.9,4.9,0,0,0,8.628,0,4.894,4.894,0,0,0,5.051,1.482,4.894,4.894,0,0,0,3.57,5.058,4.894,4.894,0,0,0,5.052,8.634a4.9,4.9,0,0,0,3.576,1.482Zm0,0"/><path class="a" d="M17.478,16.148a12.493,12.493,0,0,0-.17-1.327,10.454,10.454,0,0,0-.326-1.334,6.59,6.59,0,0,0-.548-1.244,4.7,4.7,0,0,0-.827-1.078,3.646,3.646,0,0,0-1.188-.746,4.106,4.106,0,0,0-1.517-.274,1.539,1.539,0,0,0-.822.349c-.246.161-.535.347-.856.552a4.907,4.907,0,0,1-1.108.488,4.3,4.3,0,0,1-2.711,0A4.9,4.9,0,0,1,6.3,11.045c-.319-.2-.607-.389-.857-.552a1.537,1.537,0,0,0-.822-.349,4.1,4.1,0,0,0-1.516.275,3.643,3.643,0,0,0-1.188.746,4.7,4.7,0,0,0-.827,1.078,6.6,6.6,0,0,0-.548,1.244,10.479,10.479,0,0,0-.326,1.334,12.449,12.449,0,0,0-.17,1.327c-.028.4-.042.819-.042,1.24a3.487,3.487,0,0,0,1.036,2.638A3.728,3.728,0,0,0,3.7,21H13.816a3.727,3.727,0,0,0,2.669-.973,3.485,3.485,0,0,0,1.036-2.638c0-.423-.014-.84-.042-1.24Zm0,0"/></g></g></svg>