<svg xmlns="http://www.w3.org/2000/svg" xmlns:xlink="http://www.w3.org/1999/xlink" width="34" height="34" viewBox="0 0 34 34"><defs><style>.a,.d{fill:#fff;}.a{stroke:#707070;}.b{fill:#ff575a;}.c{clip-path:url(#a);}</style><clipPath id="a"><rect class="a" width="17" height="17" transform="translate(0.126 -0.009)"/></clipPath></defs><g transform="translate(-330.554 -216)"><rect class="b" width="34" height="34" rx="17" transform="translate(330.554 216)"/><g class="c" transform="translate(339.428 225.009)"><g transform="translate(0.234 -0.193)"><g transform="translate(0)"><path class="d" d="M15.653,2.277h-.285V.854A.855.855,0,0,0,14.515,0h-.569a.855.855,0,0,0-.854.854V2.277H3.984V.854A.855.855,0,0,0,3.131,0H2.561a.855.855,0,0,0-.854.854V2.277H1.423A1.425,1.425,0,0,0,0,3.7V15.653a1.425,1.425,0,0,0,1.423,1.423h14.23a1.425,1.425,0,0,0,1.423-1.423V3.7A1.425,1.425,0,0,0,15.653,2.277Zm-1.992.285V.854a.285.285,0,0,1,.285-.285h.569A.285.285,0,0,1,14.8.854V3.7a.285.285,0,0,1-.285.285h-.569a.285.285,0,0,1-.285-.285Zm-11.384,0V.854A.285.285,0,0,1,2.561.569h.569a.285.285,0,0,1,.285.285V3.7a.285.285,0,0,1-.285.285H2.561A.285.285,0,0,1,2.277,3.7Zm14.23,13.092a.855.855,0,0,1-.854.854H1.423a.855.855,0,0,1-.854-.854V7.4H16.507Zm0-8.823H.569V3.7a.855.855,0,0,1,.854-.854h.285V3.7a.855.855,0,0,0,.854.854h.569A.855.855,0,0,0,3.984,3.7V2.846h9.107V3.7a.855.855,0,0,0,.854.854h.569a.855.855,0,0,0,.854-.854V2.846h.285a.855.855,0,0,1,.854.854Z" transform="translate(0)"/></g><g transform="translate(5.123 3.7)"><path class="d" d="M14.646,5.85H8.385a.284.284,0,0,0-.285.285V7.842a.284.284,0,0,0,.285.285h6.261a.284.284,0,0,0,.285-.285V6.135A.284.284,0,0,0,14.646,5.85Zm-.285,1.708H8.669V6.419h5.692Z" transform="translate(-8.1 -5.85)"/></g><g transform="translate(1.708 8.253)"><path class="d" d="M4.692,13.05H2.985a.284.284,0,0,0-.285.285v1.423a.284.284,0,0,0,.285.285H4.692a.284.284,0,0,0,.285-.285V13.335A.284.284,0,0,0,4.692,13.05Zm-.285,1.423H3.269v-.854H4.408Z" transform="translate(-2.7 -13.05)"/></g><g transform="translate(5.407 8.253)"><path class="d" d="M10.542,13.05H8.835a.284.284,0,0,0-.285.285v1.423a.284.284,0,0,0,.285.285h1.708a.284.284,0,0,0,.285-.285V13.335A.284.284,0,0,0,10.542,13.05Zm-.285,1.423H9.119v-.854h1.138Z" transform="translate(-8.55 -13.05)"/></g><g transform="translate(9.392 8.253)"><path class="d" d="M16.842,13.05H15.135a.284.284,0,0,0-.285.285v1.423a.284.284,0,0,0,.285.285h1.708a.284.284,0,0,0,.285-.285V13.335A.284.284,0,0,0,16.842,13.05Zm-.285,1.423H15.419v-.854h1.138Z" transform="translate(-14.85 -13.05)"/></g><g transform="translate(13.092 8.253)"><path class="d" d="M22.692,13.05H20.985a.284.284,0,0,0-.285.285v1.423a.284.284,0,0,0,.285.285h1.708a.284.284,0,0,0,.285-.285V13.335A.284.284,0,0,0,22.692,13.05Zm-.285,1.423H21.269v-.854h1.138Z" transform="translate(-20.7 -13.05)"/></g><g transform="translate(1.708 11.099)"><path class="d" d="M4.692,17.55H2.985a.284.284,0,0,0-.285.285v1.423a.284.284,0,0,0,.285.285H4.692a.284.284,0,0,0,.285-.285V17.835A.284.284,0,0,0,4.692,17.55Zm-.285,1.423H3.269v-.854H4.408Z" transform="translate(-2.7 -17.55)"/></g><g transform="translate(5.407 11.099)"><path class="d" d="M10.542,17.55H8.835a.284.284,0,0,0-.285.285v1.423a.284.284,0,0,0,.285.285h1.708a.284.284,0,0,0,.285-.285V17.835A.284.284,0,0,0,10.542,17.55Zm-.285,1.423H9.119v-.854h1.138Z" transform="translate(-8.55 -17.55)"/></g><g transform="translate(9.392 11.099)"><path class="d" d="M16.842,17.55H15.135a.284.284,0,0,0-.285.285v1.423a.284.284,0,0,0,.285.285h1.708a.284.284,0,0,0,.285-.285V17.835A.284.284,0,0,0,16.842,17.55Zm-.285,1.423H15.419v-.854h1.138Z" transform="translate(-14.85 -17.55)"/></g><g transform="translate(13.092 11.099)"><path class="d" d="M22.692,17.55H20.985a.284.284,0,0,0-.285.285v1.423a.284.284,0,0,0,.285.285h1.708a.284.284,0,0,0,.285-.285V17.835A.284.284,0,0,0,22.692,17.55Zm-.285,1.423H21.269v-.854h1.138Z" transform="translate(-20.7 -17.55)"/></g><g transform="translate(1.708 13.945)"><path class="d" d="M4.692,22.05H2.985a.284.284,0,0,0-.285.285v1.423a.284.284,0,0,0,.285.285H4.692a.284.284,0,0,0,.285-.285V22.335A.284.284,0,0,0,4.692,22.05Zm-.285,1.423H3.269v-.854H4.408Z" transform="translate(-2.7 -22.05)"/></g><g transform="translate(5.407 13.945)"><path class="d" d="M10.542,22.05H8.835a.284.284,0,0,0-.285.285v1.423a.284.284,0,0,0,.285.285h1.708a.284.284,0,0,0,.285-.285V22.335A.284.284,0,0,0,10.542,22.05Zm-.285,1.423H9.119v-.854h1.138Z" transform="translate(-8.55 -22.05)"/></g><g transform="translate(9.191 13.763)"><path class="d" d="M16.791,21.762,15.568,23.23l-.634-.634-.4.4.854.854a.283.283,0,0,0,.2.083H15.6a.287.287,0,0,0,.206-.1l1.423-1.708Z" transform="translate(-14.532 -21.762)"/></g><g transform="translate(12.606 13.763)"><path class="d" d="M22.191,21.762,20.968,23.23l-.634-.634-.4.4.854.854a.283.283,0,0,0,.2.083H21a.287.287,0,0,0,.206-.1l1.423-1.708Z" transform="translate(-19.932 -21.762)"/></g></g></g></g></svg>