<svg xmlns="http://www.w3.org/2000/svg" xmlns:xlink="http://www.w3.org/1999/xlink" width="25" height="25" viewBox="0 0 25 25"><defs><style>.a,.c{fill:#ff0a0a;}.a{stroke:#707070;}.b{clip-path:url(#a);}</style><clipPath id="a"><rect class="a" width="25" height="25" transform="translate(226 659)"/></clipPath></defs><g class="b" transform="translate(-226 -659)"><g transform="translate(226 659)"><path class="c" d="M24.69,11.9l-2.675-1.886a.733.733,0,0,0-1.154.6v3.772a.733.733,0,0,0,1.154.6L24.69,13.1A.733.733,0,0,0,24.69,11.9Z"/><path class="c" d="M21.019,17.2a.733.733,0,0,0-1,.267,9.941,9.941,0,1,1,0-9.94A.732.732,0,1,0,21.286,6.8a11.406,11.406,0,1,0,0,11.407A.732.732,0,0,0,21.019,17.2Z"/><path class="c" d="M8.017,11.768a.732.732,0,1,0,0,1.465H19.4V11.768Z"/></g></g></svg>