<svg xmlns="http://www.w3.org/2000/svg" xmlns:xlink="http://www.w3.org/1999/xlink" width="21" height="21" viewBox="0 0 21 21"><defs><style>.a,.c{fill:#ff575a;}.a{stroke:#707070;}.b{clip-path:url(#a);}</style><clipPath id="a"><rect class="a" width="21" height="21"/></clipPath></defs><g class="b"><path class="c" d="M20.43,14.762l-4.862-2.645a1.092,1.092,0,0,0-1.293.193L11.9,14.729a.244.244,0,0,1-.311,0A22.807,22.807,0,0,1,8.666,12.4,24.906,24.906,0,0,1,6.239,9.38a.244.244,0,0,1,0-.311L8.691,6.718a1.092,1.092,0,0,0,.193-1.293L6.231.563A1.083,1.083,0,0,0,4.887.076L1.117,1.537A1.747,1.747,0,0,0,0,3.359a20.523,20.523,0,0,0,5.265,11.63L6,15.719H6a20.523,20.523,0,0,0,11.638,5.273h.2a1.747,1.747,0,0,0,1.621-1.117l1.461-3.77a1.092,1.092,0,0,0-.487-1.344Z" transform="translate(0.01 0.003)"/></g></svg>