<svg xmlns="http://www.w3.org/2000/svg" xmlns:xlink="http://www.w3.org/1999/xlink" width="21" height="21" viewBox="0 0 21 21"><defs><style>.a,.c{fill:#ff575a;}.a{stroke:#707070;}.b{clip-path:url(#a);}</style><clipPath id="a"><rect class="a" width="21" height="21"/></clipPath></defs><g class="b"><path class="c" d="M12.187.728A9.38,9.38,0,0,0,2.938,8.62C2.862,9.1.552,21.376.552,21.376l6.871-3.22A9.365,9.365,0,1,0,12.187.728Zm-.451,4.111a1.254,1.254,0,1,1-.888.367,1.255,1.255,0,0,1,.888-.367Zm1.83,10.526H10.719a.639.639,0,1,1,0-1.277h.4V9.955h-.074a.746.746,0,0,1-.13-1.481L12.4,8.18a.644.644,0,0,1,.77.632v5.275h.394a.639.639,0,0,1,0,1.277Z" transform="translate(-0.552 -0.552)"/></g></svg>